<?xml version="1.0" encoding="utf-8"?>
<!-- Generator: Adobe Illustrator 22.0.1, SVG Export Plug-In . SVG Version: 6.00 Build 0)  -->
<svg version="1.1" id="Слой_1" xmlns="http://www.w3.org/2000/svg" xmlns:xlink="http://www.w3.org/1999/xlink" x="0px" y="0px"
	 viewBox="0 0 125 95" style="enable-background:new 0 0 125 95;" xml:space="preserve">
<style type="text/css">
	.st0{fill:#6BB5CC;}
	.st1{fill:#0E0F0F;}
	.st2{fill:#D06D4B;stroke:#0E0F0F;stroke-miterlimit:10;}
	.st3{fill:#4D8459;}
	.st4{fill:#FFFFFF;}
</style>
<g id="третий_чудик">
	<g id="голова_x5F_3">
		<path class="st0" d="M55.1,14.4h-3h-9.9c0,0-23.5-27.3-15.6-5s8.7,28.7,0,27.1c-8.7-1.6-38.7-6-17.5,4s21.6,6.4,22,17.1
			c0.4,10.8-42.9-4.8-18.2,9.6c24.7,14.3,28.5,8.8,27,18.7c-1.5,10,4.9,10.4,9.9,4.4s12.9-4.4,12.9-4.4V15"/>
		<path class="st1" d="M40.9,18.2c0,0-8.8-14.6-10.8-13.4c-2,1.2-2,1.2-2,1.2s-6.3-13.4,0,2.1s6.3,15.5,6.3,15.5"/>
		<polygon class="st1" points="3.1,36.8 9.1,39.8 1.7,46.6 		"/>
		<polygon class="st1" points="12.9,41.4 19,44.2 11.8,51.3 		"/>
		<polygon class="st1" points="22.9,45.5 28.9,48.3 21.7,55.4 		"/>
		<polygon class="st1" points="13.1,66.4 19.1,69.4 11.7,76.2 		"/>
		<polygon class="st1" points="26.6,73.2 32.6,76.1 25.2,83 		"/>
		<path class="st2" d="M47.7,59.7h-4.2c-3.3,0-6-2.7-6-6V36.3c0-3.3,2.7-6,6-6h4.2c3.3,0,6,2.7,6,6v17.4C53.7,57,51,59.7,47.7,59.7z
			"/>
		<ellipse class="st3" cx="45.6" cy="38.4" rx="6.3" ry="6.6"/>
		<ellipse class="st1" cx="45.6" cy="38.4" rx="4.9" ry="5.1"/>
		<ellipse transform="matrix(0.7144 -0.6997 0.6997 0.7144 -10.4734 43.722)" class="st4" cx="48.3" cy="34.7" rx="2.8" ry="0.9"/>
		<path class="st0" d="M69.9,14.6h3h9.9c0,0,23.5-27.3,15.6-5c-8,22.3-8.7,28.7,0,27.1c8.7-1.6,38.7-6,17.5,4s-21.6,6.4-22,17.1
			c-0.4,10.8,42.9-4.8,18.2,9.6c-24.7,14.3-28.5,8.8-27,18.7c1.5,10-4.9,10.4-9.9,4.4c-4.9-6-12.9-4.4-12.9-4.4V15.2"/>
		<path class="st1" d="M84.2,18.3c0,0,8.8-14.6,10.8-13.4c2,1.2,2,1.2,2,1.2s6.3-13.4,0,2.1s-6.3,15.5-6.3,15.5"/>
		<polygon class="st1" points="121.9,36.9 116,39.9 123.4,46.8 		"/>
		<polygon class="st1" points="112.1,41.5 106.1,44.3 113.3,51.4 		"/>
		<polygon class="st1" points="102.2,45.6 96.1,48.4 103.4,55.5 		"/>
		<polygon class="st1" points="112,66.5 106,69.5 113.4,76.3 		"/>
		<polygon class="st1" points="98.4,73.3 92.4,76.3 99.8,83.1 		"/>
		<path class="st2" d="M77.4,59.8h4.2c3.3,0,6-2.7,6-6V36.4c0-3.3-2.7-6-6-6h-4.2c-3.3,0-6,2.7-6,6v17.4
			C71.4,57.1,74.1,59.8,77.4,59.8z"/>
		<ellipse class="st3" cx="79.5" cy="38.5" rx="6.3" ry="6.6"/>
		<ellipse class="st1" cx="79.5" cy="38.5" rx="4.9" ry="5.1"/>
		<ellipse transform="matrix(0.6997 -0.7144 0.7144 0.6997 -1.8598 65.2308)" class="st4" cx="76.7" cy="34.8" rx="0.9" ry="2.8"/>
		<rect x="35.4" y="63.6" class="st1" width="54.5" height="2.8"/>
		<polygon class="st1" points="41.5,65.1 49.6,65.1 44.9,77.7 		"/>
		<polygon class="st1" points="75.4,65.1 83.5,65.1 78.8,77.7 		"/>
		<ellipse transform="matrix(0.217 -0.9762 0.9762 0.217 -37.7845 35.5763)" class="st4" cx="3.3" cy="41.3" rx="2.7" ry="0.4"/>
		<ellipse transform="matrix(0.155 -0.9879 0.9879 0.155 -34.6341 52.0846)" class="st4" cx="13.1" cy="46.3" rx="2.7" ry="0.4"/>
		<ellipse transform="matrix(0.155 -0.9879 0.9879 0.155 -30.3563 65.3133)" class="st4" cx="23" cy="50.4" rx="2.7" ry="0.4"/>
		<ellipse transform="matrix(0.155 -0.9879 0.9879 0.155 -58.7187 72.8064)" class="st4" cx="13.2" cy="70.7" rx="2.7" ry="0.4"/>
		<ellipse transform="matrix(0.217 -0.9762 0.9762 0.217 -55.2921 87.1909)" class="st4" cx="26.7" cy="78.1" rx="2.7" ry="0.4"/>
		<ellipse transform="matrix(0.9906 -0.1367 0.1367 0.9906 -9.761 14.1936)" class="st4" cx="98.5" cy="78.2" rx="0.4" ry="2.7"/>
		<ellipse transform="matrix(0.9906 -0.1367 0.1367 0.9906 -8.6116 15.9558)" class="st4" cx="111.9" cy="70.7" rx="0.4" ry="2.7"/>
		<ellipse transform="matrix(0.3204 -0.9473 0.9473 0.3204 -11.476 123.8774)" class="st4" cx="80.6" cy="69.9" rx="2.7" ry="0.4"/>
		<ellipse transform="matrix(0.9854 -0.1705 0.1705 0.9854 -11.4743 8.5701)" class="st4" cx="44.2" cy="71.1" rx="0.4" ry="2.7"/>
		<ellipse transform="matrix(0.9539 -0.3002 0.3002 0.9539 -3.8626 9.8016)" class="st4" cx="30" cy="17.5" rx="0.2" ry="7.3"/>
		<ellipse transform="matrix(0.3243 -0.946 0.946 0.3243 52.0207 100.2256)" class="st4" cx="96.2" cy="13.7" rx="8.2" ry="0.1"/>
		<ellipse transform="matrix(0.9906 -0.1367 0.1367 0.9906 -5.8887 14.3943)" class="st4" cx="101.9" cy="50.1" rx="0.4" ry="2.7"/>
		<ellipse transform="matrix(0.9906 -0.1367 0.1367 0.9906 -5.1806 15.7192)" class="st4" cx="111.9" cy="45.6" rx="0.4" ry="2.7"/>
		<ellipse transform="matrix(0.9906 -0.1367 0.1367 0.9906 -4.4723 17.0298)" class="st4" cx="121.8" cy="41.1" rx="0.4" ry="2.7"/>
	</g>
</g>
</svg>
