<?xml version="1.0" encoding="utf-8"?>
<!-- Generator: Adobe Illustrator 22.0.1, SVG Export Plug-In . SVG Version: 6.00 Build 0)  -->
<svg version="1.1" id="Слой_1" xmlns="http://www.w3.org/2000/svg" xmlns:xlink="http://www.w3.org/1999/xlink" x="0px" y="0px"
	 viewBox="0 0 85 65" style="enable-background:new 0 0 85 65;" xml:space="preserve">
<style type="text/css">
	.st0{fill:#4D8459;}
	.st1{fill:#121314;}
	.st2{fill:#FFFFFF;}
</style>
<g id="рука_x5F_1_x5F_1">
	<ellipse transform="matrix(0.8005 -0.5993 0.5993 0.8005 -7.6108 34.3471)" class="st0" cx="47.8" cy="28.6" rx="42.3" ry="12.7"/>
	<polygon class="st1" points="2.5,50.2 15,46.3 14.9,51.2 	"/>
	<polygon class="st1" points="8.8,63.5 14,52.3 16.9,54.8 	"/>
	<polygon class="st1" points="22.2,63.7 18.3,54.5 21.6,54.2 	"/>
	<ellipse transform="matrix(0.8005 -0.5993 0.5993 0.8005 -6.7739 29.6634)" class="st2" cx="41.2" cy="25" rx="20" ry="2.5"/>
	<ellipse transform="matrix(0.9722 -0.2342 0.2342 0.9722 -11.0638 3.8803)" class="st2" cx="10.8" cy="48.5" rx="3.5" ry="0.2"/>
	<ellipse transform="matrix(0.4337 -0.9011 0.9011 0.4337 -44.6036 43.5942)" class="st2" cx="12.4" cy="57.3" rx="3.5" ry="0.2"/>
	<ellipse transform="matrix(0.9384 -0.3455 0.3455 0.9384 -18.7541 10.5777)" class="st2" cx="20.3" cy="57.9" rx="0.2" ry="3"/>
</g>
</svg>
