<?xml version="1.0" encoding="utf-8"?>
<!-- Generator: Adobe Illustrator 22.0.1, SVG Export Plug-In . SVG Version: 6.00 Build 0)  -->
<svg version="1.1" id="Слой_1" xmlns="http://www.w3.org/2000/svg" xmlns:xlink="http://www.w3.org/1999/xlink" x="0px" y="0px"
	 viewBox="0 0 115 70" style="enable-background:new 0 0 115 70;" xml:space="preserve">
<style type="text/css">
	.st0{fill:#121314;}
	.st1{fill:#D06D4B;}
	.st2{fill:#FFFFFF;}
</style>
<g id="рука_x5F_2_x5F_2">
	<rect x="17.1" y="20.6" transform="matrix(0.9169 -0.3991 0.3991 0.9169 -6.8149 28.4793)" class="st0" width="95.8" height="20"/>
	
		<rect x="31.4" y="17.7" transform="matrix(0.9169 -0.3991 0.3991 0.9169 -4.4674 30.4479)" class="st1" width="78.9" height="16.5"/>
	<circle class="st0" cx="22" cy="49.3" r="10"/>
	<ellipse transform="matrix(0.3199 -0.9475 0.9475 0.3199 -35.6273 39.2633)" class="st1" cx="9.5" cy="44.4" rx="3.8" ry="7.6"/>
	<ellipse transform="matrix(0.8429 -0.5381 0.5381 0.8429 -27.8328 14.0929)" class="st1" cx="10.2" cy="54.7" rx="7.6" ry="3.8"/>
	<ellipse transform="matrix(0.2659 -0.964 0.964 0.2659 -44.7683 61.7834)" class="st1" cx="18.2" cy="60.3" rx="7.6" ry="3.8"/>
	<ellipse transform="matrix(0.8198 -0.5726 0.5726 0.8198 -28.9127 14.3925)" class="st2" cx="8.4" cy="53.1" rx="4" ry="1.1"/>
	<ellipse transform="matrix(0.3869 -0.9221 0.9221 0.3869 -33.21 34.9036)" class="st2" cx="9.6" cy="42.4" rx="1.1" ry="4"/>
	<ellipse transform="matrix(0.1581 -0.9874 0.9874 0.1581 -46.7499 67.2021)" class="st2" cx="16" cy="61" rx="4" ry="1.1"/>
	<ellipse transform="matrix(0.9169 -0.3991 0.3991 0.9169 -12.5985 14.9886)" class="st2" cx="29.7" cy="37.7" rx="8.7" ry="0.9"/>
</g>
</svg>
