<?xml version="1.0" encoding="utf-8"?>
<!-- Generator: Adobe Illustrator 22.0.1, SVG Export Plug-In . SVG Version: 6.00 Build 0)  -->
<svg version="1.1" id="Слой_1" xmlns="http://www.w3.org/2000/svg" xmlns:xlink="http://www.w3.org/1999/xlink" x="0px" y="0px"
	 viewBox="0 0 85 65" style="enable-background:new 0 0 85 65;" xml:space="preserve">
<style type="text/css">
	.st0{fill:#4D8459;}
	.st1{fill:#121314;}
	.st2{fill:#FFFFFF;}
</style>
<g id="рука_x5F_1_x5F_1">
	<ellipse transform="matrix(0.5993 -0.8005 0.8005 0.5993 -8.2578 40.7144)" class="st0" cx="36.5" cy="28.6" rx="12.7" ry="42.3"/>
	<polygon class="st1" points="69.4,51.2 69.3,46.3 81.8,50.2 	"/>
	<polygon class="st1" points="67.4,54.8 70.3,52.3 75.5,63.5 	"/>
	<polygon class="st1" points="62.7,54.2 66,54.5 62.1,63.7 	"/>
	<ellipse transform="matrix(0.5993 -0.8005 0.8005 0.5993 -2.7253 44.5696)" class="st2" cx="43.2" cy="25" rx="2.5" ry="20"/>
	<ellipse transform="matrix(0.2342 -0.9722 0.9722 0.2342 9.1303 108.6401)" class="st2" cx="73.5" cy="48.5" rx="0.2" ry="3.5"/>
	<ellipse transform="matrix(0.9011 -0.4337 0.4337 0.9011 -17.7235 36.8713)" class="st2" cx="72" cy="57.3" rx="0.2" ry="3.5"/>
	<ellipse transform="matrix(0.3455 -0.9384 0.9384 0.3455 -12.4212 97.9857)" class="st2" cx="64" cy="57.9" rx="3" ry="0.2"/>
</g>
</svg>
