<?xml version="1.0" encoding="utf-8"?>
<!-- Generator: Adobe Illustrator 22.0.1, SVG Export Plug-In . SVG Version: 6.00 Build 0)  -->
<svg version="1.1" id="Слой_1" xmlns="http://www.w3.org/2000/svg" xmlns:xlink="http://www.w3.org/1999/xlink" x="0px" y="0px"
	 viewBox="0 0 115 70" style="enable-background:new 0 0 115 70;" xml:space="preserve">
<style type="text/css">
	.st0{fill:#121314;}
	.st1{fill:#D06D4B;}
	.st2{fill:#FFFFFF;}
</style>
<g id="рука_x5F_2_x5F_2">
	<rect x="40.1" y="-17.3" transform="matrix(0.3991 -0.9169 0.9169 0.3991 2.067 64.3641)" class="st0" width="20" height="95.8"/>
	<rect x="36" y="-13.5" transform="matrix(0.3991 -0.9169 0.9169 0.3991 2.7877 56.1576)" class="st1" width="16.5" height="78.9"/>
	<circle class="st0" cx="93.1" cy="49.3" r="10"/>
	<ellipse transform="matrix(0.9475 -0.3199 0.3199 0.9475 -8.6695 36.1083)" class="st1" cx="105.6" cy="44.4" rx="7.6" ry="3.8"/>
	<ellipse transform="matrix(0.5381 -0.8429 0.8429 0.5381 2.3464 113.6902)" class="st1" cx="104.9" cy="54.7" rx="3.8" ry="7.6"/>
	<ellipse transform="matrix(0.964 -0.2659 0.2659 0.964 -12.5397 27.9458)" class="st1" cx="96.9" cy="60.3" rx="3.8" ry="7.6"/>
	<ellipse transform="matrix(0.5726 -0.8198 0.8198 0.5726 2.0404 110.1959)" class="st2" cx="106.7" cy="53.1" rx="1.1" ry="4"/>
	<ellipse transform="matrix(0.9221 -0.3869 0.3869 0.9221 -8.2003 44.1168)" class="st2" cx="105.5" cy="42.4" rx="4" ry="1.1"/>
	<ellipse transform="matrix(0.9874 -0.1581 0.1581 0.9874 -8.4013 16.4353)" class="st2" cx="99.1" cy="61" rx="1.1" ry="4"/>
	<ellipse transform="matrix(0.3991 -0.9169 0.9169 0.3991 16.7213 101.0123)" class="st2" cx="85.4" cy="37.7" rx="0.9" ry="8.7"/>
</g>
</svg>
