<?xml version="1.0" encoding="utf-8"?>
<!-- Generator: Adobe Illustrator 22.0.1, SVG Export Plug-In . SVG Version: 6.00 Build 0)  -->
<svg version="1.1" id="Слой_1" xmlns="http://www.w3.org/2000/svg" xmlns:xlink="http://www.w3.org/1999/xlink" x="0px" y="0px"
	 viewBox="0 0 110 130" style="enable-background:new 0 0 110 130;" xml:space="preserve">
<style type="text/css">
	.st0{fill:#0E0F0F;}
	.st1{fill:#6BB5CC;}
	.st2{fill:#D06D4B;}
</style>
<g id="тело_x5F_3">
	<polygon class="st0" points="54.1,13.3 76.3,13.3 93.1,61.2 76.3,81 104.5,107.9 107.3,128.1 54.1,128.1 	"/>
	<polygon class="st0" points="55.2,13.3 33,13.3 16.3,61.2 33,81 4.9,107.9 2,128.1 55.2,128.1 	"/>
	<rect x="50.8" y="1.7" class="st0" width="8.9" height="14.3"/>
	<polygon class="st1" points="54.1,14.7 75.5,14.7 91.5,60.7 75.5,79.6 102.5,105.5 105.2,124.8 54.1,124.8 	"/>
	<polygon class="st1" points="55.2,14.7 33.9,14.7 17.8,60.7 33.9,79.6 6.9,105.5 4.1,124.8 55.2,124.8 	"/>
	<rect x="50.9" y="3.5" class="st1" width="8.5" height="13.7"/>
	<polygon class="st0" points="36.1,17.2 22.1,59.8 31.7,69.8 41.7,17.2 	"/>
	<polygon class="st0" points="73.6,18.2 87.6,60.8 78,70.7 68,18.2 	"/>
	<polygon class="st0" points="38.5,84.8 11.2,111 9.5,122 28.6,122 	"/>
	<polygon class="st0" points="73.1,84.8 100.4,111 102.1,122 83,122 	"/>
	<rect x="37.9" y="69.8" class="st0" width="34.6" height="6.4"/>
	<polygon class="st2" points="46.7,17.2 63,17.2 72.2,67.2 37.9,67.2 	"/>
	<polygon class="st2" points="43.3,79.6 68,79.6 77.8,120.9 33.4,120.9 	"/>
</g>
</svg>
